<?xml version="1.0" encoding="utf-8"?>
<!-- Generator: Adobe Illustrator 25.0.0, SVG Export Plug-In . SVG Version: 6.00 Build 0)  -->
<svg version="1.1" id="Layer_1" xmlns="http://www.w3.org/2000/svg" xmlns:xlink="http://www.w3.org/1999/xlink" x="0px" y="0px"
	 viewBox="0 0 1093.31 250.78" style="enable-background:new 0 0 1093.31 250.78;" xml:space="preserve">
<style type="text/css">
	.st0{fill:#FFFFFF;stroke:#000000;stroke-miterlimit:10;}
</style>
<g>
	<path d="M125.39,0C56.14,0,0,56.14,0,125.39s56.14,125.39,125.39,125.39s125.39-56.14,125.39-125.39S194.64,0,125.39,0"/>
</g>
<g>
	<path d="M125.39,19.55c43.24,0,80.41,25.93,96.84,63.09l-27.07,23.03c-4.89,4.16-6.72,10.02-2.73,14.69
		c3.98,4.68,10.05,3.82,14.94-0.34l21.24-18.08c1.71,7.54,2.61,15.39,2.61,23.45c0,58.45-47.38,105.83-105.83,105.83
		c-43.53,0-80.92-26.29-97.17-63.85l29.03-24.71c4.89-4.16,6.72-10.01,2.73-14.69c-3.98-4.68-10.05-3.81-14.94,0.34l-23.06,19.63
		c-1.58-7.27-2.42-14.81-2.42-22.55C19.56,66.94,66.94,19.55,125.39,19.55"/>
</g>
<g>
	<path d="M179.49,142.66l-46.27,39.37c-6.24,5.31-11.64,6.33-17.04-0.01c-2.3-2.71-2.73-5.74-2.77-8.94l-0.18-78.36l-29.73,25.3
		c-4.89,4.16-10.96,5.02-14.94,0.34c-3.98-4.67-2.16-10.53,2.73-14.69l44.91-38.22c4.37-3.72,9.5-4.85,14.54,1.07
		c1.77,2.08,2.89,5.08,2.83,8.17l0.44,79.94l33.27-28.32c4.89-4.15,10.96-5.02,14.94-0.34C186.2,132.65,184.38,138.5,179.49,142.66z
		"/>
</g>
<path class="st0" d="M125.39,19.55c-58.45,0-105.83,47.39-105.83,105.84c0,7.74,0.84,15.28,2.42,22.55l23.06-19.63
	c4.89-4.15,10.96-5.02,14.94-0.34c3.99,4.68,2.16,10.53-2.73,14.69l-29.03,24.71c16.25,37.56,53.64,63.85,97.17,63.85
	c58.45,0,105.83-47.38,105.83-105.83c0-8.06-0.9-15.91-2.61-23.45l-21.24,18.08c-4.89,4.16-10.96,5.02-14.94,0.34
	c-3.99-4.67-2.16-10.53,2.73-14.69l27.07-23.03C205.8,45.48,168.63,19.55,125.39,19.55"/>
<g>
	<path d="M179.49,142.66l-46.27,39.37c-6.24,5.31-11.64,6.33-17.04-0.01c-2.3-2.71-2.73-5.74-2.77-8.94l-0.18-78.36l-29.73,25.3
		c-4.89,4.16-10.96,5.02-14.94,0.34c-3.98-4.67-2.16-10.53,2.73-14.69l44.91-38.22c4.37-3.72,9.5-4.85,14.54,1.07
		c1.77,2.08,2.89,5.08,2.83,8.17l0.44,79.94l33.27-28.32c4.89-4.15,10.96-5.02,14.94-0.34C186.2,132.65,184.38,138.5,179.49,142.66z
		"/>
</g>
<g>
	<path d="M179.49,142.66l-46.27,39.37c-6.24,5.31-11.64,6.33-17.04-0.01c-2.3-2.71-2.73-5.74-2.77-8.94l-0.18-78.36l-29.73,25.3
		c-4.89,4.16-10.96,5.02-14.94,0.34c-3.98-4.67-2.16-10.53,2.73-14.69l44.91-38.22c4.37-3.72,9.5-4.85,14.54,1.07
		c1.77,2.08,2.89,5.08,2.83,8.17l0.44,79.94l33.27-28.32c4.89-4.15,10.96-5.02,14.94-0.34C186.2,132.65,184.38,138.5,179.49,142.66z
		"/>
</g>
<g>
	<path d="M301.53,168.34c-2.35-2.3-3.52-5.1-3.52-8.4c0-2.8,0.75-5.15,2.25-7.05l53.1-71.55h-41.1c-3.1,0-5.78-1.12-8.03-3.38
		s-3.38-4.92-3.38-8.02c0-3.2,1.12-5.9,3.38-8.1c2.25-2.2,4.92-3.3,8.03-3.3h65.55c3.4,0,6.3,1.2,8.7,3.6c2.4,2.4,3.6,5.3,3.6,8.7
		c0,2.8-0.8,5.25-2.4,7.35l-52.8,70.8h45.6c3.2,0,5.9,1.1,8.1,3.3c2.2,2.2,3.3,4.9,3.3,8.1c0,3.1-1.1,5.77-3.3,8.02
		c-2.2,2.25-4.9,3.38-8.1,3.38h-70.65C306.65,171.79,303.88,170.64,301.53,168.34z"/>
	<path d="M407.65,168.49c-2.2-2.2-3.3-5.35-3.3-9.45V71.29c0-4.1,1.1-7.25,3.3-9.45c2.2-2.2,5.35-3.3,9.45-3.3h55.2
		c3.2,0,5.93,1.15,8.18,3.45c2.25,2.3,3.38,5.05,3.38,8.25c0,3.1-1.12,5.8-3.38,8.1c-2.25,2.3-4.98,3.45-8.18,3.45h-39.45v22.05
		h32.55c3.1,0,5.75,1.1,7.95,3.3c2.2,2.2,3.3,4.85,3.3,7.95c0,3.1-1.1,5.78-3.3,8.03c-2.2,2.25-4.85,3.37-7.95,3.37h-32.55v22.05
		h42.45c3.2,0,5.93,1.12,8.18,3.38s3.38,4.98,3.38,8.17c0,3.2-1.12,5.95-3.38,8.25c-2.25,2.3-4.98,3.45-8.18,3.45h-58.2
		C413,171.79,409.85,170.69,407.65,168.49z"/>
	<path d="M502.45,169.09c-2.6-2.6-3.9-5.7-3.9-9.3V76.84c0-3.5,0.87-6.75,2.62-9.75c1.75-3,4.12-5.37,7.12-7.12
		c3-1.75,6.25-2.62,9.75-2.62c3.4,0,6.57,0.85,9.52,2.55c2.95,1.7,5.33,4,7.12,6.9l30,49.8c1.8,3,3.35,5.95,4.65,8.85l1.8,4.05h0.75
		v-59.1c0-3.6,1.27-6.68,3.83-9.23c2.55-2.55,5.67-3.83,9.38-3.83c3.6,0,6.67,1.28,9.22,3.83s3.83,5.62,3.83,9.23v84.3
		c0,5-1.8,9.3-5.4,12.9c-3.6,3.6-7.9,5.4-12.9,5.4c-3.3,0-6.35-0.8-9.15-2.4c-2.8-1.6-5-3.75-6.6-6.45l-31.5-51.9
		c-1.1-1.8-2.75-4.9-4.95-9.3c-0.7-1.2-1.3-2.5-1.8-3.9h-0.75v60.75c0,3.6-1.3,6.7-3.9,9.3c-2.6,2.6-5.7,3.9-9.3,3.9
		C508.2,172.99,505.05,171.69,502.45,169.09z"/>
	<path d="M637.53,166.91c-8.35-4.85-14.73-11.72-19.12-20.62c-4.4-8.9-6.6-19.3-6.6-31.2c0-11.8,2.25-22.12,6.75-30.97
		c4.5-8.85,10.95-15.72,19.35-20.62c8.4-4.9,18.3-7.35,29.7-7.35c11.5,0,21.42,2.43,29.78,7.27c8.35,4.85,14.72,11.73,19.12,20.62
		c4.4,8.9,6.6,19.25,6.6,31.05c0,11.9-2.23,22.3-6.67,31.2c-4.45,8.9-10.88,15.78-19.28,20.62c-8.4,4.85-18.35,7.28-29.85,7.28
		C655.8,174.19,645.88,171.76,637.53,166.91z M685.9,142.39c4.6-6,6.9-15.1,6.9-27.3c0-12.2-2.3-21.27-6.9-27.22
		c-4.6-5.95-10.75-8.93-18.45-8.93c-7.7,0-13.85,2.98-18.45,8.93c-4.6,5.95-6.9,15.03-6.9,27.22c0,12.2,2.3,21.3,6.9,27.3
		c4.6,6,10.75,9,18.45,9C675.15,151.39,681.3,148.39,685.9,142.39z"/>
	<path d="M748.45,64.69v98.4h60v8.7h-70.2V64.69H748.45z"/>
	<path d="M861.55,64.69l42,107.1H892.6l-13.05-33.3H830.8l-12.9,33.3h-10.8l43.05-107.1H861.55z M876.1,129.79l-20.7-54.9
		l-21.45,54.9H876.1z"/>
	<path d="M958.6,64.69c4.5,0,8.82,0.43,12.98,1.27c4.15,0.85,7.8,2.3,10.95,4.35c3.15,2.05,5.67,4.75,7.57,8.1
		c1.9,3.35,2.85,7.53,2.85,12.52c0,2.8-0.45,5.53-1.35,8.18c-0.9,2.65-2.17,5.05-3.82,7.2c-1.65,2.15-3.6,3.98-5.85,5.48
		s-4.78,2.55-7.58,3.15v0.3c6.9,0.9,12.4,3.73,16.5,8.47c4.1,4.75,6.15,10.63,6.15,17.62c0,1.7-0.15,3.63-0.45,5.78
		c-0.3,2.15-0.9,4.35-1.8,6.6s-2.2,4.48-3.9,6.68c-1.7,2.2-3.97,4.12-6.82,5.77c-2.85,1.65-6.35,3-10.5,4.05
		c-4.15,1.05-9.13,1.58-14.93,1.58h-45.3V64.69H958.6z M958.6,111.64c4.1,0,7.65-0.47,10.65-1.43c3-0.95,5.5-2.25,7.5-3.9
		c2-1.65,3.5-3.57,4.5-5.77c1-2.2,1.5-4.55,1.5-7.05c0-13.4-8.05-20.1-24.15-20.1h-35.1v38.25H958.6z M958.6,163.09
		c3.8,0,7.4-0.32,10.8-0.97c3.4-0.65,6.4-1.82,9-3.53c2.6-1.7,4.65-3.97,6.15-6.82c1.5-2.85,2.25-6.42,2.25-10.73
		c0-6.9-2.43-12.08-7.28-15.52c-4.85-3.45-11.83-5.18-20.93-5.18h-35.1v42.75H958.6z"/>
	<path d="M1085.2,64.69v9l-70.5,89.4h72v8.7h-83.4v-9l70.5-89.4h-65.7v-8.7H1085.2z"/>
</g>
</svg>